HIERARCHY
ROOT hips
{
	OFFSET -0.003675 0.299928 -0.021708
	CHANNELS 6 Xposition Yposition Zposition Xrotation Yrotation Zrotation
	JOINT LowerBack
	{
		OFFSET 0.000919 0.177588 0.009275
		CHANNELS 3 Xrotation Yrotation Zrotation
		JOINT spine
		{
			OFFSET 0.000919 0.177588 0.009275
			CHANNELS 3 Xrotation Yrotation Zrotation
			JOINT chest
			{
				OFFSET 0.000456 0.100015 0.004638
				CHANNELS 3 Xrotation Yrotation Zrotation
				JOINT neck
				{
					OFFSET 0.000456 0.100015 0.004638
					CHANNELS 3 Xrotation Yrotation Zrotation
					JOINT head
					{
						OFFSET 0.000924 0.155147 0.009274
						CHANNELS 6 Xposition Yposition Zposition Xrotation Yrotation Zrotation
						End Site
						{
							OFFSET 0.000000 0.153400 0.000000
						}
					}
				}
				JOINT shoulder.L
				{
					OFFSET 0.019937 0.078966 0.057518
					CHANNELS 6 Xposition Yposition Zposition Yrotation Xrotation Zrotation
					JOINT upper_arm.L
					{
						OFFSET 0.177024 -0.020465 -0.095062
						CHANNELS 6 Xposition Yposition Zposition Xrotation Yrotation Zrotation
						JOINT forearm.L
						{
							OFFSET 0.247100 -0.135500 -0.061800
							CHANNELS 3 Xrotation Yrotation Zrotation
							JOINT hand.L
							{
								OFFSET 0.217000 -0.143000 0.039300
								CHANNELS 3 Xrotation Yrotation Zrotation
								JOINT palm.01.L
								{
									OFFSET 0.021770 -0.038291 0.012954
									CHANNELS 6 Xposition Yposition Zposition Yrotation Xrotation Zrotation
									JOINT f_index.01.L
									{
										OFFSET 0.053215 -0.044137 0.008236
										CHANNELS 3 Xrotation Yrotation Zrotation
										JOINT f_index.02.L
										{
											OFFSET 0.036108 -0.024723 -0.010656
											CHANNELS 3 Xrotation Yrotation Zrotation
											JOINT f_index.03.L
											{
												OFFSET 0.021342 -0.014948 -0.010846
												CHANNELS 3 Xrotation Yrotation Zrotation
												End Site
												{
													OFFSET 0.015600 -0.009860 -0.013421
												}
											}
										}
									}
									JOINT thumb.01.L
									{
										OFFSET -0.009090 -0.002348 -0.024223
										CHANNELS 6 Xposition Yposition Zposition Xrotation Yrotation Zrotation
										JOINT thumb.02.L
										{
											OFFSET 0.019713 -0.035076 -0.011120
											CHANNELS 3 Xrotation Yrotation Zrotation
											JOINT thumb.03.L
											{
												OFFSET 0.024877 -0.021748 -0.005176
												CHANNELS 3 Xrotation Yrotation Zrotation
												End Site
												{
													OFFSET 0.016125 -0.013029 -0.001569
												}
											}
										}
									}
								}
								JOINT palm.02.L
								{
									OFFSET 0.032823 -0.025104 0.012281
									CHANNELS 6 Xposition Yposition Zposition Yrotation Xrotation Zrotation
									JOINT f_middle.01.L
									{
										OFFSET 0.055723 -0.038469 0.008037
										CHANNELS 3 Xrotation Yrotation Zrotation
										JOINT f_middle.02.L
										{
											OFFSET 0.038167 -0.027473 -0.015582
											CHANNELS 3 Xrotation Yrotation Zrotation
											JOINT f_middle.03.L
											{
												OFFSET 0.021707 -0.016587 -0.017037
												CHANNELS 3 Xrotation Yrotation Zrotation
												End Site
												{
													OFFSET 0.014112 -0.010584 -0.014294
												}
											}
										}
									}
								}
								JOINT palm.03.L
								{
									OFFSET 0.039230 -0.011402 0.008390
									CHANNELS 6 Xposition Yposition Zposition Yrotation Xrotation Zrotation
									JOINT f_ring.01.L
									{
										OFFSET 0.061796 -0.031470 0.007910
										CHANNELS 3 Xrotation Yrotation Zrotation
										JOINT f_ring.02.L
										{
											OFFSET 0.033092 -0.023401 -0.019127
											CHANNELS 3 Xrotation Yrotation Zrotation
											JOINT f_ring.03.L
											{
												OFFSET 0.021392 -0.015362 -0.017824
												CHANNELS 3 Xrotation Yrotation Zrotation
												End Site
												{
													OFFSET 0.008670 -0.007297 -0.014686
												}
											}
										}
									}
								}
								JOINT palm.04.L
								{
									OFFSET 0.043417 0.002450 0.002889
									CHANNELS 6 Xposition Yposition Zposition Yrotation Xrotation Zrotation
									JOINT f_pinky.01.L
									{
										OFFSET 0.069986 -0.026156 0.003627
										CHANNELS 3 Xrotation Yrotation Zrotation
										JOINT f_pinky.02.L
										{
											OFFSET 0.018520 -0.012813 -0.016429
											CHANNELS 3 Xrotation Yrotation Zrotation
											JOINT f_pinky.03.L
											{
												OFFSET 0.013822 -0.009796 -0.014947
												CHANNELS 3 Xrotation Yrotation Zrotation
												End Site
												{
													OFFSET 0.007238 -0.006103 -0.011657
												}
											}
										}
									}
								}
							}
						}
					}
				}
				JOINT shoulder.R
				{
					OFFSET -0.016662 0.078957 0.057696
					CHANNELS 6 Xposition Yposition Zposition Yrotation Xrotation Zrotation
					JOINT upper_arm.R
					{
						OFFSET -0.176972 -0.020537 -0.095144
						CHANNELS 6 Xposition Yposition Zposition Xrotation Yrotation Zrotation
						JOINT forearm.R
						{
							OFFSET -0.247100 -0.135500 -0.061800
							CHANNELS 3 Xrotation Yrotation Zrotation
							JOINT hand.R
							{
								OFFSET -0.217000 -0.143000 0.039300
								CHANNELS 3 Xrotation Yrotation Zrotation
								JOINT palm.01.R
								{
									OFFSET -0.021773 -0.038278 0.012988
									CHANNELS 6 Xposition Yposition Zposition Yrotation Xrotation Zrotation
									JOINT f_index.01.R
									{
										OFFSET -0.053212 -0.044139 0.008249
										CHANNELS 3 Xrotation Yrotation Zrotation
										JOINT f_index.02.R
										{
											OFFSET -0.036049 -0.024835 -0.010634
											CHANNELS 3 Xrotation Yrotation Zrotation
											JOINT f_index.03.R
											{
												OFFSET -0.021371 -0.014881 -0.010866
												CHANNELS 3 Xrotation Yrotation Zrotation
												End Site
												{
													OFFSET -0.015584 -0.009883 -0.013422
												}
											}
										}
									}
									JOINT thumb.01.R
									{
										OFFSET 0.009113 -0.002381 -0.024211
										CHANNELS 6 Xposition Yposition Zposition Xrotation Yrotation Zrotation
										JOINT thumb.02.R
										{
											OFFSET -0.019694 -0.035097 -0.011088
											CHANNELS 3 Xrotation Yrotation Zrotation
											JOINT thumb.03.R
											{
												OFFSET -0.024867 -0.021762 -0.005168
												CHANNELS 3 Xrotation Yrotation Zrotation
												End Site
												{
													OFFSET -0.016120 -0.013036 -0.001565
												}
											}
										}
									}
								}
								JOINT palm.02.R
								{
									OFFSET -0.032828 -0.025095 0.012286
									CHANNELS 6 Xposition Yposition Zposition Yrotation Xrotation Zrotation
									JOINT f_middle.01.R
									{
										OFFSET -0.055721 -0.038472 0.008040
										CHANNELS 3 Xrotation Yrotation Zrotation
										JOINT f_middle.02.R
										{
											OFFSET -0.038101 -0.027593 -0.015557
											CHANNELS 3 Xrotation Yrotation Zrotation
											JOINT f_middle.03.R
											{
												OFFSET -0.021730 -0.016530 -0.017054
												CHANNELS 3 Xrotation Yrotation Zrotation
												End Site
												{
													OFFSET -0.014096 -0.010608 -0.014293
												}
											}
										}
									}
								}
								JOINT palm.03.R
								{
									OFFSET -0.039192 -0.011488 0.008390
									CHANNELS 6 Xposition Yposition Zposition Yrotation Xrotation Zrotation
									JOINT f_ring.01.R
									{
										OFFSET -0.061839 -0.031387 0.007876
										CHANNELS 3 Xrotation Yrotation Zrotation
										JOINT f_ring.02.R
										{
											OFFSET -0.033068 -0.023437 -0.019125
											CHANNELS 3 Xrotation Yrotation Zrotation
											JOINT f_ring.03.R
											{
												OFFSET -0.021371 -0.015393 -0.017822
												CHANNELS 3 Xrotation Yrotation Zrotation
												End Site
												{
													OFFSET -0.008654 -0.007321 -0.014684
												}
											}
										}
									}
								}
								JOINT palm.04.R
								{
									OFFSET -0.043421 0.002443 0.002845
									CHANNELS 6 Xposition Yposition Zposition Yrotation Xrotation Zrotation
									JOINT f_pinky.01.R
									{
										OFFSET -0.069983 -0.026169 0.003599
										CHANNELS 3 Xrotation Yrotation Zrotation
										JOINT f_pinky.02.R
										{
											OFFSET -0.018501 -0.012842 -0.016428
											CHANNELS 3 Xrotation Yrotation Zrotation
											JOINT f_pinky.03.R
											{
												OFFSET -0.013806 -0.009821 -0.014946
												CHANNELS 3 Xrotation Yrotation Zrotation
												End Site
												{
													OFFSET -0.007226 -0.006121 -0.011655
												}
											}
										}
									}
								}
							}
						}
					}
				}
			}
		}
	}
	JOINT pelvis.L
	{
		OFFSET 0.000000 0.000000 0.000000
		CHANNELS 6 Xposition Yposition Zposition Xrotation Yrotation Zrotation
		JOINT thigh.L
		{
			OFFSET 0.101675 0.001054 -0.000000
			CHANNELS 3 Xrotation Yrotation Zrotation
			JOINT shin.L
			{
				OFFSET 0.000000 -0.534800 0.041000
				CHANNELS 3 Xrotation Yrotation Zrotation
				JOINT foot.L
				{
					OFFSET 0.000000 -0.452000 -0.044800
					CHANNELS 3 Xrotation Yrotation Zrotation
					JOINT toe.L
					{
						OFFSET -0.000000 -0.068500 0.109600
						CHANNELS 3 Xrotation Yrotation Zrotation
						End Site
						{
							OFFSET -0.000000 0.000000 0.067200
						}
					}
				}
				JOINT heel.L
				{
					OFFSET 0.000000 -0.452000 -0.044800
					CHANNELS 3 Xrotation Yrotation Zrotation
					JOINT heel.02.L
					{
						OFFSET -0.038000 -0.085200 0.016200
						CHANNELS 6 Xposition Yposition Zposition Xrotation Yrotation Zrotation
						End Site
						{
							OFFSET 0.080000 -0.000000 0.000000
						}
					}
				}
			}
		}
	}
	JOINT pelvis.R
	{
		OFFSET 0.000000 0.000000 0.000000
		CHANNELS 6 Xposition Yposition Zposition Xrotation Yrotation Zrotation
		JOINT thigh.R
		{
			OFFSET -0.094325 0.001054 0.000000
			CHANNELS 3 Xrotation Yrotation Zrotation
			JOINT shin.R
			{
				OFFSET 0.000000 -0.534800 0.041000
				CHANNELS 3 Xrotation Yrotation Zrotation
				JOINT foot.R
				{
					OFFSET 0.000000 -0.452000 -0.044800
					CHANNELS 3 Xrotation Yrotation Zrotation
					JOINT toe.R
					{
						OFFSET -0.000000 -0.068500 0.109600
						CHANNELS 3 Xrotation Yrotation Zrotation
						End Site
						{
							OFFSET -0.000000 0.000000 0.067200
						}
					}
				}
				JOINT heel.R
				{
					OFFSET 0.000000 -0.452000 -0.044800
					CHANNELS 3 Xrotation Yrotation Zrotation
					JOINT heel.02.R
					{
						OFFSET 0.038000 -0.085200 0.016200
						CHANNELS 6 Xposition Yposition Zposition Xrotation Yrotation Zrotation
						End Site
						{
							OFFSET -0.080000 0.000000 -0.000000
						}
					}
				}
			}
		}
	}
}
MOTION
Frames: 4
Frame Time: 0.041667
-0.005794 0.291907 -0.020835 3.302094 0.400990 1.314659 -0.000000 -0.000000 -0.000000 -0.000000 -0.000000 0.000000 0.000000 -0.000000 0.000000 -0.000000 0.000000 0.000000 0.000924 0.155147 0.009274 10.164364 -0.010684 -1.532854 0.019937 0.078966 0.057518 8.688201 6.580292 29.691464 0.177024 -0.020465 -0.095062 -9.521338 9.503603 -48.420779 -21.284751 -26.069790 -5.187247 -0.000001 -0.000000 -0.000004 0.021770 -0.038291 0.012954 -0.000003 -0.000001 0.000001 -0.000001 0.000001 0.000003 -0.000000 -0.000000 0.000009 0.000002 -0.000002 -0.000001 -0.009090 -0.002348 -0.024224 0.000001 0.000000 0.000003 -0.000001 -0.000001 0.000003 -0.000003 -0.000001 -0.000002 0.032823 -0.025104 0.012281 -0.000003 0.000001 0.000007 -0.000001 0.000000 -0.000007 -0.000003 -0.000001 0.000005 0.000000 0.000005 -0.000001 0.039230 -0.011402 0.008390 -0.000001 0.000002 0.000006 0.000001 0.000000 -0.000000 -0.000001 0.000003 0.000003 0.000003 -0.000000 0.000003 0.043417 0.002450 0.002889 -0.000002 0.000004 -0.000000 -0.000003 -0.000002 -0.000004 0.000002 0.000002 0.000000 0.000001 0.000003 0.000000 -0.016662 0.078957 0.057696 0.870018 6.151766 -32.137461 -0.176972 -0.020537 -0.095144 -11.020533 -9.117247 47.620424 -13.210475 14.970277 10.979854 -0.000003 0.000002 0.000002 -0.021773 -0.038278 0.012988 -0.000000 -0.000000 0.000000 -0.000001 -0.000000 0.000004 0.000000 -0.000000 -0.000001 -0.000003 -0.000000 -0.000003 0.009113 -0.002381 -0.024212 0.000001 -0.000003 0.000000 -0.000001 -0.000003 -0.000002 0.000002 -0.000001 0.000003 -0.032828 -0.025095 0.012286 0.000001 0.000000 0.000002 -0.000002 0.000003 0.000001 -0.000000 -0.000000 -0.000001 -0.000003 -0.000001 0.000003 -0.039192 -0.011488 0.008390 0.000001 -0.000001 0.000005 -0.000003 0.000000 -0.000003 0.000001 0.000001 0.000002 -0.000002 0.000003 0.000001 -0.043421 0.002443 0.002845 0.000000 -0.000001 0.000002 -0.000003 0.000004 0.000004 -0.000003 -0.000004 -0.000003 -0.000002 -0.000000 0.000001 0.000000 0.000000 -0.000000 -1.240554 -0.028124 -0.666423 -8.247640 0.007312 0.769695 33.716194 0.286426 -2.889002 0.000007 0.000000 -0.000000 -0.000001 0.000000 -0.000000 0.000007 0.000000 -0.000000 -0.038000 -0.085200 0.016200 0.000000 -0.000000 -0.000000 0.000000 0.000000 -0.000000 -1.214689 -0.028156 0.567786 -7.750145 0.053263 -0.117693 31.230261 -0.396071 4.000104 0.000000 -0.000000 -0.000000 -0.000002 -0.000000 0.000000 0.000003 -0.000000 -0.000000 0.038000 -0.085200 0.016200 0.000001 0.000000 0.000001 
-0.003628 0.260183 -0.021561 4.586710 2.329154 1.192871 -0.000001 -0.000000 -0.000000 -0.000000 -0.000000 0.000000 0.000000 -0.000000 0.000000 -0.000000 0.000000 -0.000000 0.000924 0.155147 0.009274 9.766117 -0.012109 0.354406 0.019937 0.078966 0.057518 8.214722 4.278962 28.181449 0.177025 -0.020465 -0.095062 -5.439368 11.575687 -58.000184 -20.371910 -21.618993 -11.534784 -0.000006 -0.000002 0.000005 0.021770 -0.038291 0.012954 -0.000000 0.000003 -0.000004 -0.000003 -0.000001 0.000001 0.000002 -0.000000 0.000007 -0.000000 0.000007 0.000003 -0.009090 -0.002348 -0.024224 -0.000000 -0.000001 -0.000001 -0.000001 -0.000001 0.000005 0.000000 0.000000 -0.000002 0.032823 -0.025104 0.012281 0.000002 0.000006 -0.000001 -0.000002 0.000001 0.000000 -0.000005 -0.000004 0.000005 0.000002 -0.000006 0.000000 0.039230 -0.011402 0.008390 0.000001 -0.000000 0.000004 -0.000001 0.000003 -0.000000 -0.000003 0.000005 -0.000001 0.000003 -0.000004 0.000002 0.043417 0.002450 0.002889 -0.000001 0.000003 -0.000004 -0.000001 -0.000002 -0.000002 0.000002 0.000003 -0.000005 -0.000003 -0.000006 -0.000007 -0.016662 0.078956 0.057696 0.289351 3.331876 -28.811889 -0.176972 -0.020537 -0.095144 -6.060236 -11.794254 56.332515 -10.182500 13.013307 8.071039 0.000001 0.000002 0.000002 -0.021773 -0.038278 0.012988 -0.000000 0.000000 0.000005 -0.000001 0.000001 0.000001 -0.000000 -0.000000 0.000001 -0.000000 0.000004 0.000003 0.009113 -0.002381 -0.024212 0.000000 -0.000002 0.000004 0.000000 0.000000 -0.000001 0.000001 -0.000001 -0.000006 -0.032828 -0.025095 0.012286 0.000001 0.000002 -0.000003 -0.000001 -0.000000 0.000006 -0.000000 0.000000 -0.000004 -0.000006 0.000003 -0.000003 -0.039192 -0.011488 0.008390 0.000001 0.000001 0.000005 -0.000001 0.000003 -0.000002 -0.000002 -0.000003 -0.000004 0.000001 0.000000 0.000003 -0.043421 0.002443 0.002845 0.000000 0.000002 0.000002 -0.000001 0.000002 -0.000001 -0.000003 0.000003 0.000003 -0.000001 0.000001 -0.000007 -0.000000 0.000000 -0.000000 -1.577112 -0.007594 -0.918270 -11.406920 -0.292816 -2.831458 43.203808 -0.010841 0.111466 -0.000007 -0.000000 0.000000 -0.000002 -0.000000 0.000000 -0.000003 -0.000000 0.000000 -0.038000 -0.085200 0.016200 0.000001 -0.000000 -0.000000 -0.000000 -0.000000 -0.000000 -1.543483 -0.007785 0.315925 -6.505163 0.317258 3.301301 34.237894 -0.350244 3.536801 0.000000 -0.000000 0.000001 -0.000001 0.000000 0.000000 0.000005 -0.000000 0.000000 0.038000 -0.085200 0.016200 0.000001 -0.000000 0.000000 
-0.003429 0.254211 -0.021565 2.165234 4.508729 0.722172 0.000000 0.000001 0.000000 -0.000000 -0.000000 0.000000 0.000000 -0.000001 -0.000000 0.000000 -0.000000 -0.000000 0.000924 0.155148 0.009274 9.624683 -0.012507 1.775767 0.019937 0.078966 0.057518 3.880765 2.811598 27.235987 0.177025 -0.020465 -0.095062 -3.146105 11.773212 -70.201586 -5.397482 -7.761276 -14.406582 0.000001 -0.000002 0.000003 0.021770 -0.038291 0.012954 -0.000000 -0.000001 -0.000004 -0.000001 -0.000003 -0.000000 0.000000 -0.000000 0.000005 -0.000002 0.000003 -0.000000 -0.009090 -0.002348 -0.024224 0.000001 -0.000003 -0.000003 0.000003 -0.000001 -0.000002 -0.000001 0.000001 -0.000002 0.032823 -0.025104 0.012281 -0.000003 -0.000001 0.000002 -0.000001 0.000000 -0.000005 -0.000000 -0.000003 0.000001 0.000001 -0.000002 0.000002 0.039230 -0.011402 0.008390 0.000001 -0.000003 0.000003 -0.000000 0.000005 -0.000002 0.000003 -0.000004 0.000006 -0.000003 -0.000005 0.000003 0.043417 0.002450 0.002889 -0.000002 -0.000000 -0.000003 -0.000002 -0.000003 -0.000000 0.000002 -0.000002 -0.000003 -0.000002 -0.000003 -0.000001 -0.016662 0.078957 0.057696 -2.700502 2.305397 -25.834033 -0.176972 -0.020537 -0.095144 -3.273508 -11.762390 67.892757 -0.390287 3.204850 12.135486 -0.000000 -0.000001 0.000002 -0.021773 -0.038278 0.012988 -0.000000 -0.000003 -0.000002 -0.000001 0.000001 0.000001 -0.000000 -0.000000 -0.000004 0.000001 -0.000002 0.000001 0.009114 -0.002381 -0.024211 -0.000001 -0.000000 -0.000001 -0.000001 -0.000001 -0.000001 0.000001 0.000001 -0.000003 -0.032828 -0.025095 0.012286 0.000001 -0.000000 -0.000001 0.000002 -0.000000 0.000001 0.000002 0.000000 -0.000000 -0.000001 0.000002 -0.000007 -0.039192 -0.011488 0.008390 0.000000 0.000001 -0.000000 0.000000 0.000005 -0.000003 -0.000001 -0.000001 0.000002 -0.000001 -0.000003 -0.000001 -0.043421 0.002443 0.002845 0.000000 -0.000001 0.000000 -0.000003 0.000003 0.000001 -0.000004 -0.000001 -0.000003 -0.000000 0.000006 0.000002 -0.000000 0.000000 -0.000000 -1.663663 -0.013459 -0.840183 -11.211960 -0.272842 -2.550248 50.034995 -0.034644 0.351631 0.000000 0.000000 -0.000000 -0.000004 -0.000000 -0.000000 0.000002 0.000000 -0.000001 -0.038000 -0.085200 0.016200 -0.000000 -0.000000 -0.000000 -0.000000 -0.000000 -0.000000 -1.628371 -0.013611 0.394006 -0.133244 0.516650 6.377582 31.424935 -0.028095 0.284231 0.000002 0.000001 0.000000 0.000000 0.000001 -0.000000 0.000000 0.000001 0.000000 0.038000 -0.085200 0.016200 -0.000000 0.000001 0.000001 
-0.003443 0.260819 -0.021050 2.144840 5.055158 0.842883 -0.000000 0.000000 0.000000 0.000000 0.000000 0.000000 0.000000 0.000000 0.000000 0.000001 0.000001 -0.000000 0.000924 0.155148 0.009274 6.731966 -0.007281 0.932385 0.019937 0.078966 0.057518 4.314705 3.504012 26.627183 0.177024 -0.020465 -0.095062 -1.719495 11.230813 -72.478423 -17.997291 -14.893921 -25.693939 0.000000 -0.000003 0.000002 0.021770 -0.038291 0.012954 0.000001 0.000003 0.000001 0.000002 -0.000001 0.000008 -0.000000 0.000001 0.000005 -0.000002 0.000002 0.000002 -0.009090 -0.002348 -0.024223 0.000004 -0.000002 -0.000001 0.000004 0.000001 -0.000002 0.000001 -0.000000 -0.000002 0.032823 -0.025104 0.012281 0.000003 0.000003 0.000002 0.000000 -0.000002 -0.000005 -0.000001 -0.000003 0.000007 -0.000000 0.000001 0.000003 0.039230 -0.011402 0.008390 0.000002 0.000004 0.000002 0.000000 0.000000 0.000001 -0.000001 0.000003 -0.000001 0.000002 -0.000000 0.000003 0.043417 0.002450 0.002889 0.000003 0.000004 -0.000004 -0.000002 -0.000004 0.000003 -0.000001 0.000003 -0.000003 -0.000002 0.000004 -0.000002 -0.016662 0.078957 0.057696 -0.615682 2.947779 -26.185813 -0.176972 -0.020537 -0.095144 -3.306952 -11.489010 69.563537 -12.926586 12.589960 22.945788 0.000002 0.000002 -0.000000 -0.021773 -0.038278 0.012988 0.000001 -0.000001 -0.000005 -0.000003 0.000004 -0.000005 -0.000002 0.000001 -0.000004 -0.000001 0.000002 0.000001 0.009114 -0.002381 -0.024211 -0.000000 0.000000 -0.000001 -0.000001 -0.000001 0.000002 0.000002 0.000001 0.000001 -0.032828 -0.025095 0.012286 0.000001 -0.000001 -0.000003 -0.000000 0.000004 0.000003 0.000001 0.000003 0.000001 0.000000 0.000003 -0.000002 -0.039192 -0.011488 0.008390 -0.000002 0.000001 -0.000000 -0.000000 0.000006 -0.000003 0.000003 -0.000000 -0.000000 -0.000001 0.000006 -0.000002 -0.043421 0.002443 0.002845 -0.000001 -0.000000 0.000002 -0.000003 0.000004 0.000001 -0.000002 -0.000002 -0.000002 0.000000 0.000005 -0.000001 -0.000000 -0.000000 -0.000000 -1.510184 -0.034565 -0.580328 -9.374063 -0.260797 -2.514375 56.140491 0.180394 -1.818232 0.000002 0.000000 0.000001 0.000002 -0.000000 0.000000 0.000002 -0.000000 0.000000 -0.038000 -0.085200 0.016200 -0.000001 0.000000 0.000000 -0.000000 -0.000000 -0.000000 -1.478791 -0.034557 0.653860 2.532347 0.420554 5.325637 34.208565 -0.189732 1.915445 0.000003 -0.000000 0.000001 0.000000 0.000001 0.000000 0.000007 0.000001 0.000001 0.038000 -0.085200 0.016200 0.000000 -0.000000 -0.000001 
